<?xml version="1.0" encoding="UTF-8" standalone="no"?>
<svg width="64px"
     height="64px"
     viewBox="0 0 64 64"
     id="i-github"
     version="1.1"
     sodipodi:docname="logo-mini.svg"
     inkscape:version="1.2 (dc2aedaf03, 2022-05-15)"
     xmlns:inkscape="http://www.inkscape.org/namespaces/inkscape"
     xmlns:sodipodi="http://sodipodi.sourceforge.net/DTD/sodipodi-0.dtd"
     xmlns="http://www.w3.org/2000/svg">
    <defs id="defs137"/>
    <sodipodi:namedview
            id="namedview135"
            pagecolor="#ffffff"
            bordercolor="#000000"
            borderopacity="0.25"
            inkscape:showpageshadow="2"
            inkscape:pageopacity="0.0"
            inkscape:pagecheckerboard="0"
            inkscape:deskcolor="#d1d1d1"
            showgrid="false"
            inkscape:zoom="9.4354561"
            inkscape:cx="32.006932"
            inkscape:cy="39.84969"
            inkscape:window-width="1920"
            inkscape:window-height="1057"
            inkscape:window-x="-8"
            inkscape:window-y="-8"
            inkscape:window-maximized="1"
            inkscape:current-layer="i-github"/>
    <path stroke-width="0"
          fill="currentColor"
          d="M32 0 C14 0 0 14 0 32 0 53 19 62 22 62 24 62 24 61 24 60 L24 55 C17 57 14 53 13 50 13 50 13 49 11 47 10 46 6 44 10 44 13 44 15 48 15 48 18 52 22 51 24 50 24 48 26 46 26 46 18 45 12 42 12 31 12 27 13 24 15 22 15 22 13 18 15 13 15 13 20 13 24 17 27 15 37 15 40 17 44 13 49 13 49 13 51 20 49 22 49 22 51 24 52 27 52 31 52 42 45 45 38 46 39 47 40 49 40 52 L40 60 C40 61 40 62 42 62 45 62 64 53 64 32 64 14 50 0 32 0 Z"
          id="path132"
          style="fill:#ff8080"/>
</svg>
